# xmcd
#
# Track frame offsets:
# 150
# 17684
# 40558
# 60223
# 76427
# 96245
# 118286
# 132582
#
# Disc length: 2478 seconds
#
#
# Revision: 0
# Processed by: cddbd v1.5.2PL0 Copyright (c) Steve Scherf et al.
# Submitted via: FreeRIP 2.51 
#
DISCID=6109ac08
DTITLE=Josa - Blue Flowers
DYEAR=2008
DGENRE=Blues
TTITLE0=Fishing Blues
TTITLE1=Blue Flowers
TTITLE2=Hey Little Girl
TTITLE3=Blue Moon Night
TTITLE4=Take Five
TTITLE5=Haven't We Lost Enough
TTITLE6=Nature Boy
TTITLE7=Bottle Up And Gone
EXTD=
EXTT0=
EXTT1=
EXTT2=
EXTT3=
EXTT4=
EXTT5=
EXTT6=
EXTT7=
PLAYORDER=
